# xmcd CD database file
#
# Track frame offsets:
#	150
#	15152
#	40204
#	62856
#	88658
#	109210
#	124962
#	158264
#	171316
#	184368
#
# Disc length: 2712 seconds
#
# Revision: 2
# Processed by: cddbd v1.5.2PL0 Copyright (c) Steve Scherf et al.
# Submitted via: CDex 1.51
#
DISCID=7d0a960a
DTITLE=Bayou Gator - Treble Without A Cause
DYEAR=2000
DGENRE=Zydeco
TTITLE0=Built For Comfort
TTITLE1=Early In The Mornin
TTITLE2=Midnight Hour
TTITLE3=Cross Road Blues
TTITLE4=Killin Floor
TTITLE5=Next Time
TTITLE6=Never Trust A Woman
TTITLE7=Dorothy Mae
TTITLE8=Born Blind
TTITLE9=Lonesome Dog Blues
EXTD=YEAR: 2000
EXTT0=
EXTT1=
EXTT2=
EXTT3=
EXTT4=
EXTT5=
EXTT6=
EXTT7=
EXTT8=
EXTT9=
PLAYORDER=
